<svg id="Layer_1" data-name="Layer 1" xmlns="http://www.w3.org/2000/svg" viewBox="0 0 64 64"><path d="M227.81,511.26c-3.84-.19-9.18.33-14.47-.79-8.48-1.8-13.52-7.09-15.14-15.35s1.28-15,8.21-19.47c9.94-6.45,19.77-13,28.57-21,33.29-30.19,53.11-67.45,58.86-112.1.4-3.13.51-6.3,1-9.42.74-5-1.52-6.31-6.2-6.24-7.48.11-15,.68-22.46-.47-15.15-2.33-22-19.3-12.11-31.24,10.71-13,22.08-25.4,33.2-38,17.95-20.39,35.83-40.84,53.92-61.09,10.89-12.18,22.19-12,33.07.29,28.26,32,56.26,64.15,84.72,95.92,10,11.21,6.89,24.21-.48,30.13-4.45,3.57-9.6,4.44-15,4.55q-9.75.18-19.5,0c-3.41-.06-4.55,1.29-4.73,4.71-4.6,88.11-70.19,161.79-157.18,176.74A177.82,177.82,0,0,1,227.81,511.26Z"/><path d="M79.52,187c3.5,0,7-.12,10.5,0s4.55-1.28,4.74-4.7c2.74-48.9,21.63-90.75,56.52-124.91,31.9-31.23,70.41-49.16,115-53.85a220.43,220.43,0,0,1,29-.68c11.1.29,17.94,5.5,20.39,15,2.24,8.65-1.51,16.54-10.48,22.16-47.39,29.72-75.38,72.33-84.56,127.4-.77,4.58-.81,9.28-1.39,13.9s1.46,5.76,5.71,5.73c7.49-.05,15-.65,22.47.43C263,189.78,270,206.64,260,218.82c-10.59,12.86-21.86,25.15-32.86,37.66-17.73,20.14-35.38,40.34-53.25,60.35-12.13,13.59-22.75,13.6-34.76,0-28.17-31.81-56-63.89-84.36-95.57-9.9-11.08-6.68-24.64,2-30.61,5-3.42,10.59-3.63,16.29-3.69C75.18,187,77.35,187,79.52,187ZM83,199.14c-4.33,0-8.67.09-13,0-3.89-.1-7.42.4-9.16,4.48s.19,7,2.74,9.92q42.65,48.36,85.27,96.73c5.75,6.5,9.43,6.47,15.22,0q19.6-22,39-44.2,23.13-26.25,46.23-52.51c2.52-2.87,4.47-6,2.74-10s-5.3-4.5-9.19-4.46q-13.49.15-27,0c-6.9-.06-9.07-2.19-9-9,0-3.49.46-7,.72-10.46,3.48-46.54,21.86-86.4,54.05-120a183,183,0,0,1,37.93-30c3.22-1.95,5.48-4.55,4.77-8.55-.74-4.21-3.65-5.94-7.8-6.36a139,139,0,0,0-36.33,1.33c-61.67,9.9-107.16,42.56-135.92,98-12.07,23.25-17.7,48.36-18.11,74.59-.14,8.74-1.83,10.39-10.7,10.42C91.34,199.15,87.18,199.14,83,199.14Z"/></svg>